<svg width="72" height="72" viewBox="0 0 72 72" fill="none" xmlns="http://www.w3.org/2000/svg">
<path d="M38.9572 40.7092C38.8611 40.6878 38.765 40.6878 38.6689 40.6985C37.697 40.581 36.9601 39.7586 36.9494 38.7761C36.9494 38.3062 36.5649 37.9217 36.095 37.9217C35.6251 37.9217 35.2406 38.3062 35.2406 38.7761C35.2406 40.4208 36.3406 41.8519 37.9213 42.2898V43.1442C37.9213 43.6141 38.3058 43.9986 38.7757 43.9986C39.2456 43.9986 39.6301 43.6141 39.6301 43.1442V42.3432C41.4563 41.9587 42.6952 40.2606 42.503 38.4023C42.3107 36.544 40.7515 35.1342 38.8825 35.1342C37.8145 35.1342 36.9494 34.2691 36.9494 33.2011C36.9494 32.1331 37.8145 31.2681 38.8825 31.2681C39.9505 31.2681 40.8155 32.1331 40.8155 33.2011C40.8155 33.6711 41.2 34.0555 41.6699 34.0555C42.1399 34.0555 42.5243 33.6711 42.5243 33.2011C42.5243 31.4817 41.3175 29.9865 39.6301 29.634V28.8544C39.6301 28.3845 39.2456 28 38.7757 28C38.3058 28 37.9213 28.3845 37.9213 28.8544V29.6874C36.1591 30.168 35.027 31.8768 35.2727 33.6817C35.5183 35.4867 37.0562 36.843 38.8825 36.843C39.9398 36.843 40.7942 37.6867 40.8155 38.744C40.8369 39.7907 40.0039 40.6664 38.9572 40.7092Z" fill="#4EC3E0"/>
<path d="M59.7882 52.8842L50.5332 57.2604C49.2617 54.8801 46.8075 53.3721 44.102 53.2982L35.5566 53.0616C34.2112 53.0173 32.8806 52.6772 31.6683 52.0563L30.796 51.6128C26.3459 49.2916 21.0383 49.3064 16.603 51.6276L16.6621 49.6612C16.6769 49.0107 16.1594 48.4637 15.5089 48.4489L6.15041 48.1976C5.4999 48.1828 4.95288 48.7002 4.93809 49.3508L4.37629 69.9011C4.3615 70.5516 4.87896 71.0986 5.52947 71.1134L14.888 71.3647H14.9176C15.5533 71.3647 16.0855 70.8621 16.1003 70.2115L16.1299 69.221L18.5693 67.92C19.5303 67.4025 20.6391 67.2842 21.6888 67.5799L36.2219 71.6604C36.2514 71.6752 36.2662 71.6752 36.2958 71.6752C37.3455 71.897 38.41 72.0005 39.4892 72.0005C41.766 72.0005 44.0132 71.5126 46.0683 70.5664C46.1126 70.5368 46.1718 70.522 46.2161 70.4924L67.2839 56.8612C67.8013 56.5212 67.9788 55.8263 67.6683 55.2941C66.1011 52.5146 62.6416 51.4501 59.7882 52.8842ZM6.78614 68.7627L7.28881 50.5779L14.2966 50.7701L13.7939 68.9549L6.78614 68.7627ZM45.0038 68.4522C42.4313 69.6054 39.5779 69.9306 36.8132 69.3688L22.3245 65.3031C20.6983 64.8448 18.9537 65.037 17.4605 65.8354L16.2186 66.5007L16.5586 54.407C20.4913 51.7902 25.5475 51.5241 29.7463 53.6974L30.6186 54.1409C32.1414 54.9245 33.812 55.3532 35.527 55.4124L44.0724 55.6489C46.4675 55.7228 48.5077 57.423 48.9956 59.7738L36.281 59.4189C35.6305 59.4041 35.0835 59.9216 35.0687 60.5721C35.0539 61.2226 35.5714 61.7697 36.2219 61.7844L50.267 62.1688H50.2966C50.9323 62.1688 51.4646 61.6662 51.4794 61.0157C51.4942 60.4982 51.4498 59.9955 51.3611 59.4781L60.8527 54.9984C60.8675 54.9984 60.8675 54.9836 60.8822 54.9836C62.2276 54.3035 63.8539 54.5253 64.9627 55.5602L45.0038 68.4522Z" fill="#79756F"/>
<path d="M37.0053 50.859C34.2554 50.859 31.9342 50.1641 29.7609 49.5136C27.558 48.8483 25.4734 48.2274 23.241 48.4787C22.6644 48.5526 22.1026 48.3752 21.6886 48.0056C21.2747 47.636 21.0381 47.089 21.0529 46.5124C21.112 44.073 21.5112 37.7896 23.9654 32.2307C25.3552 29.0964 27.1884 26.6422 29.4504 24.9124C32.1708 22.8278 35.4973 21.8077 39.3412 21.8816C49.6016 22.1181 55.3675 21.5268 57.8956 21.1719C58.5166 21.0684 59.1227 21.2606 59.5663 21.7042C60.0098 22.1329 60.202 22.7391 60.1133 23.36C59.7732 25.7699 58.901 30.5157 56.9494 35.3502C54.4804 41.4413 51.08 45.714 46.8665 48.0204C42.9486 50.1493 39.7552 50.859 37.0053 50.859ZM24.2907 46.6454C26.3753 46.6454 28.2677 47.222 30.2636 47.8134C34.4771 49.0849 38.8385 50.3859 45.9942 46.468C55.0718 41.4857 57.7478 27.337 58.3392 23.1087C58.3539 23.0496 58.3392 23.0052 58.2948 22.9609C58.2652 22.9313 58.2061 22.9165 58.147 22.9165H58.1322C55.5597 23.2861 49.6755 23.8775 39.2821 23.6557C32.9839 23.5227 28.3712 26.6422 25.5769 32.9403C23.241 38.2036 22.8714 44.206 22.8122 46.5419C22.8122 46.6011 22.827 46.6454 22.8566 46.675C22.8862 46.7046 22.9453 46.7194 23.0044 46.7046H23.0192C23.4628 46.6602 23.8915 46.6454 24.2907 46.6454Z" fill="#79756F"/>
</svg>
