<svg width="36" height="36" viewBox="0 0 36 36" fill="none" xmlns="http://www.w3.org/2000/svg">
<path d="M0 18C0 8.05887 8.05887 0 18 0H36V18C36 27.9411 27.9411 36 18 36V36C8.05887 36 0 27.9411 0 18V18Z" fill="#C4C4C4"/>
<path d="M28.9982 18C28.9982 11.9243 24.0738 7 17.9991 7C11.9243 7 7 11.9243 7 18C7 23.489 11.0223 28.0393 16.2803 28.8643V21.179H13.4882V17.9991H16.2803V15.5763C16.2803 12.819 17.923 11.2964 20.4347 11.2964C21.6382 11.2964 22.8968 11.5109 22.8968 11.5109V14.2178H21.5108C20.145 14.2178 19.7187 15.0657 19.7187 15.9357V18H22.7694L22.2817 21.1799H19.7187V28.8652C24.9767 28.0402 28.9991 23.4899 28.9991 18H28.9982Z" fill="white"/>
</svg>
