<svg width="36" height="36" viewBox="0 0 36 36" fill="none" xmlns="http://www.w3.org/2000/svg">
<path d="M0 18C0 8.05887 8.05887 0 18 0H36V18C36 27.9411 27.9411 36 18 36V36C8.05887 36 0 27.9411 0 18V18Z" fill="#C4C4C4"/>
<path d="M18.9999 14.6164C17.1362 14.6164 15.6153 16.1373 15.6153 18.001C15.6153 19.8646 17.1362 21.3855 18.9999 21.3855C20.8635 21.3855 22.3844 19.8646 22.3844 18.001C22.3844 16.1373 20.8635 14.6164 18.9999 14.6164ZM29.151 18.001C29.151 16.5994 29.1637 15.2105 29.085 13.8115C29.0063 12.1865 28.6356 10.7443 27.4473 9.55603C26.2565 8.36521 24.8169 7.99704 23.1919 7.91833C21.7903 7.83962 20.4014 7.85232 19.0024 7.85232C17.6009 7.85232 16.212 7.83962 14.813 7.91833C13.188 7.99704 11.7458 8.36775 10.5575 9.55603C9.36667 10.7468 8.99851 12.1865 8.9198 13.8115C8.84109 15.2131 8.85378 16.6019 8.85378 18.001C8.85378 19.4 8.84109 20.7914 8.9198 22.1904C8.99851 23.8154 9.36921 25.2576 10.5575 26.4459C11.7483 27.6367 13.188 28.0049 14.813 28.0836C16.2145 28.1623 17.6034 28.1496 19.0024 28.1496C20.404 28.1496 21.7928 28.1623 23.1919 28.0836C24.8169 28.0049 26.2591 27.6342 27.4473 26.4459C28.6382 25.2551 29.0063 23.8154 29.085 22.1904C29.1663 20.7914 29.151 19.4025 29.151 18.001ZM18.9999 23.2086C16.118 23.2086 13.7923 20.8828 13.7923 18.001C13.7923 15.1191 16.118 12.7933 18.9999 12.7933C21.8817 12.7933 24.2075 15.1191 24.2075 18.001C24.2075 20.8828 21.8817 23.2086 18.9999 23.2086ZM24.4208 13.7963C23.7479 13.7963 23.2046 13.2529 23.2046 12.5801C23.2046 11.9072 23.7479 11.3638 24.4208 11.3638C25.0936 11.3638 25.637 11.9072 25.637 12.5801C25.6372 12.7398 25.6059 12.8981 25.5448 13.0457C25.4838 13.1934 25.3942 13.3275 25.2812 13.4405C25.1682 13.5535 25.0341 13.643 24.8864 13.7041C24.7388 13.7651 24.5805 13.7965 24.4208 13.7963Z" fill="white"/>
</svg>
