<svg width="37" height="36" viewBox="0 0 37 36" fill="none" xmlns="http://www.w3.org/2000/svg">
<path d="M0.236328 18C0.236328 8.05888 8.2952 0 18.2363 0H36.6654V17.7855C36.6654 27.8451 28.4026 36 18.343 36C8.40185 36 0.236328 27.9411 0.236328 18Z" fill="#C4C4C4"/>
<g clip-path="url(#clip0)">
<path d="M9.34277 22.4544C9.34277 21.2403 9.82157 20.0985 10.6905 19.2398L14.2731 15.6994C14.2349 15.97 14.1934 16.2403 14.1934 16.5169C14.1934 17.2795 14.3433 18.0268 14.6213 18.7138L12.3897 20.919C11.9749 21.3296 11.7461 21.8746 11.7461 22.4544C11.7461 23.6518 12.7318 24.6259 13.9434 24.6259C14.5302 24.6259 15.0817 24.3998 15.4971 23.9898L19.514 20.0203C20.3436 19.1993 20.3442 17.7706 19.5146 16.9495L21.215 15.2715C22.0828 16.1297 22.561 17.2713 22.561 18.4849C22.561 19.6991 22.0822 20.8408 21.2132 21.6995L17.1964 25.6691C16.3274 26.5278 15.1721 27.001 13.9434 27.001C11.4064 27.0009 9.34277 24.9616 9.34277 22.4544V22.4544Z" fill="white"/>
<path d="M23.312 16.2663L25.5224 14.0819C25.9373 13.6714 26.1661 13.1263 26.1661 12.5465C26.1661 11.3491 25.1804 10.375 23.9688 10.375C23.382 10.375 22.8305 10.6012 22.4151 11.0111L18.3982 14.9807C17.5685 15.8017 17.5679 17.2304 18.3976 18.0515L16.6972 19.7295C14.9616 18.0126 14.961 15.019 16.699 13.3015L20.7158 9.33188C21.5848 8.47312 22.7401 8 23.9687 8C26.5058 8 28.5694 10.0393 28.5694 12.5465C28.5694 13.7606 28.0906 14.9023 27.2216 15.7611L23.6866 19.2545C23.7212 18.9994 23.7627 18.7457 23.7627 18.484C23.7628 17.7096 23.6061 16.9596 23.312 16.2663Z" fill="white"/>
</g>
<defs>
<clipPath id="clip0">
<rect width="19" height="19.2265" transform="matrix(-4.42324e-08 1 1 4.31965e-08 9.34277 8)" fill="white"/>
</clipPath>
</defs>
</svg>
