<svg width="32" height="32" viewBox="0 0 32 32" fill="none" xmlns="http://www.w3.org/2000/svg">
<path d="M25.3332 11.9993C25.3332 10.7737 25.0918 9.56001 24.6227 8.42764C24.1537 7.29527 23.4662 6.26637 22.5995 5.39969C21.7328 4.53301 20.7039 3.84552 19.5716 3.37647C18.4392 2.90743 17.2255 2.66602 15.9998 2.66602C14.7742 2.66602 13.5605 2.90743 12.4281 3.37647C11.2958 3.84552 10.2669 4.53301 9.40017 5.39969C8.53349 6.26637 7.84601 7.29527 7.37696 8.42764C6.90792 9.56001 6.6665 10.7737 6.6665 11.9993C6.6665 13.8487 7.21317 15.5687 8.13984 17.0194H8.12917C11.2758 21.946 15.9998 29.3327 15.9998 29.3327L23.8705 17.0194H23.8612C24.8217 15.5212 25.3326 13.779 25.3332 11.9993ZM15.9998 15.9993C14.939 15.9993 13.9216 15.5779 13.1714 14.8278C12.4213 14.0776 11.9998 13.0602 11.9998 11.9993C11.9998 10.9385 12.4213 9.92107 13.1714 9.17092C13.9216 8.42078 14.939 7.99935 15.9998 7.99935C17.0607 7.99935 18.0781 8.42078 18.8283 9.17092C19.5784 9.92107 19.9998 10.9385 19.9998 11.9993C19.9998 13.0602 19.5784 14.0776 18.8283 14.8278C18.0781 15.5779 17.0607 15.9993 15.9998 15.9993Z" fill="#8A75D1"/>
</svg>
