<svg width="60" height="60" viewBox="0 0 60 60" fill="none" xmlns="http://www.w3.org/2000/svg">
<g clip-path="url(#clip0)">
<path d="M30.419 20.1214C30.419 18.7815 30.419 17.4535 30.419 16.1847C28.9932 15.9475 27.591 15.8052 26.2364 15.4851C23.4678 14.821 21.127 13.41 19.3447 11.1452C19.2258 10.991 19.0951 10.8369 19.0119 10.659C18.7624 10.1847 18.8812 9.65108 19.2971 9.33092C19.7249 9.01076 20.2596 9.03448 20.6517 9.39021C20.723 9.46136 20.7824 9.5325 20.8418 9.61551C23.2302 12.7341 26.5929 13.7301 30.4428 13.9436C30.3715 10.9554 29.718 8.20444 27.7812 5.89219C25.4284 3.09377 22.2202 2.27559 18.6079 2.16887C18.7149 3.1412 18.8218 4.04239 18.9169 4.93171C19.0001 5.64318 18.6079 6.20049 17.9663 6.24792C17.4316 6.28349 16.9919 5.97519 16.8612 5.38231C16.7186 4.69456 16.6236 3.99495 16.5048 3.29535C16.5048 2.46531 16.5048 1.63527 16.5048 0.805232C16.8494 0.188631 17.3959 -0.0485234 18.0851 0.0107651C19.3209 0.117484 20.5567 0.1412 21.7568 0.354639C25.9275 1.07796 29.1239 3.18863 31.0369 7.05424C31.3102 7.5997 31.5241 8.16887 31.7142 8.61946C32.4747 7.82499 33.1758 6.92381 34.0432 6.23606C36.0156 4.67084 38.3446 4.17282 40.828 4.13725C41.5885 4.12539 42.1351 4.36254 42.4321 5.08586C42.4321 5.67875 42.4321 6.27163 42.4321 6.86452C42.3846 7.05424 42.3252 7.24397 42.3014 7.43369C41.6598 12.3191 38.6179 15.3546 33.7105 15.9594C33.3421 16.0068 32.9738 16.0305 32.5579 16.0661C32.5579 17.4653 32.5579 18.8052 32.5579 20.1452C31.8449 20.1214 31.132 20.1214 30.419 20.1214ZM40.1745 6.33092C36.2176 5.90405 31.9756 10.1728 32.6886 13.8487C37.7624 13.825 40.1745 10.2084 40.1745 6.33092Z" fill="#FF6D6A"/>
<path d="M19.7249 7.92C19.7131 8.48917 19.2021 8.97533 18.6318 8.95162C18.0376 8.9279 17.5029 8.3113 17.5029 7.63541C17.5029 7.05439 17.9782 6.58008 18.5605 6.58008C19.214 6.58008 19.7487 7.20854 19.7249 7.92Z" fill="#FF6D6A"/>
<path d="M59.1743 28.1805C57.6652 29.5085 56.168 30.8484 54.6352 32.1528C53.5777 33.054 52.6152 34.0263 51.8072 35.1646C50.5358 36.9433 49.205 38.6864 47.8979 40.4413C50.0724 43.0737 48.7534 46.8208 45.3907 47.3899C45.3075 47.9828 45.3075 48.5757 45.1412 49.133C44.6302 50.805 43.4658 51.7654 41.7428 52.0263C41.4814 52.0619 41.2438 52.0382 41.1725 52.4532C40.7091 55.0737 39.2356 56.2595 36.4789 56.2595C36.1225 58.0382 35.16 59.3188 33.3182 59.7457C31.4883 60.1844 30.0268 59.4611 28.8742 58.0737C26.272 60.6943 21.8398 59.2832 21.5428 55.2872C19.0356 55.05 17.681 53.639 17.4077 51.137C14.8767 50.888 13.5222 49.4888 13.2489 46.9749C12.9756 46.9394 12.6904 46.9275 12.429 46.8682C9.79109 46.3109 8.37708 43.5125 9.55344 41.0816C9.73168 40.7141 9.70791 40.4413 9.54156 40.0975C8.42461 37.8089 7.34332 35.5085 6.22637 33.22C6.09566 32.9473 5.89366 32.6745 5.6679 32.4848C4.09942 31.1093 2.4953 29.7575 0.914944 28.382C0.594119 28.0975 0.308942 27.7773 0 27.469C0 27.1963 0 26.9117 0 26.639C0.0950591 26.5204 0.190118 26.3899 0.285177 26.2714C3.54095 22.05 6.79673 17.8168 10.0644 13.5955C10.611 12.8959 11.0863 12.8366 11.8586 13.3228C13.7955 14.5441 15.7204 15.7892 17.6691 16.9986C17.9305 17.1646 18.287 17.2595 18.6078 17.2595C21.0437 17.2832 23.4796 17.2595 25.9155 17.2832C26.3433 17.2832 26.7829 17.3544 27.1988 17.4611C29.0406 17.971 30.8823 18.5164 32.7241 19.0263C33.0093 19.1093 33.3539 19.1093 33.639 19.0382C35.3382 18.5994 37.0374 18.1251 38.7247 17.6508C39.2475 17.4967 39.8179 17.3781 40.2694 17.0935C42.2419 15.884 44.1906 14.6271 46.1393 13.3939C47.078 12.7892 47.4701 12.8603 48.195 13.7496C51.8666 18.2793 55.5264 22.8089 59.1862 27.3504C59.1743 27.635 59.1743 27.9077 59.1743 28.1805ZM36.5621 20.6982C36.7166 20.971 36.8116 21.1607 36.9186 21.3504C38.2494 23.6982 39.5921 26.0579 40.9229 28.4058C41.5052 29.4255 41.7191 30.5046 41.3745 31.6548C40.8517 33.4097 39.6515 34.4295 37.8454 34.6311C36.17 34.8089 34.8035 34.1449 33.9242 32.6982C32.9736 31.133 32.0824 29.5204 31.1913 27.9196C31.013 27.5994 30.8348 27.4927 30.4427 27.5283C29.0881 27.6587 27.7216 27.7062 26.3551 27.8366C26.0224 27.8722 25.6184 28.0263 25.3808 28.2516C22.8736 30.718 20.3902 33.2081 17.8949 35.6982C15.9343 37.6548 13.9737 39.6113 12.025 41.5678C11.3001 42.303 11.2883 43.382 11.9537 44.0698C12.631 44.7694 13.6885 44.7931 14.4609 44.0935C14.746 43.8445 14.9956 43.5718 15.2689 43.299C17.479 41.0698 19.6891 38.8287 21.9111 36.5994C22.4696 36.0421 23.1588 36.0065 23.6578 36.4809C24.145 36.9552 24.1212 37.6666 23.5984 38.2239C23.3845 38.4611 23.1588 38.6745 22.933 38.8998C20.6872 41.1646 18.4533 43.4176 16.2076 45.6824C15.6729 46.2279 15.5065 46.8682 15.7442 47.5797C15.958 48.2437 16.469 48.6113 17.1344 48.7299C17.7998 48.8484 18.3226 48.552 18.7861 48.1014C20.2595 46.6073 21.7329 45.1251 23.2063 43.6311C23.4202 43.4176 23.6222 43.2042 23.8598 43.0263C24.3351 42.6824 24.9768 42.7654 25.3689 43.1923C25.7373 43.5955 25.7848 44.2002 25.4521 44.6627C25.3214 44.8405 25.1669 44.9947 25.0124 45.1488C23.4915 46.6785 21.9705 48.2081 20.4615 49.7378C19.6297 50.5915 19.5822 51.6943 20.3308 52.4176C21.0794 53.1409 22.125 53.0698 22.9687 52.216C23.8123 51.3741 24.6441 50.5322 25.4758 49.6903C25.8561 49.299 26.3076 49.1449 26.8304 49.3583C27.6384 49.6903 27.8048 50.639 27.1631 51.3148C26.272 52.2397 25.3451 53.1291 24.4658 54.0658C23.7767 54.801 23.8004 55.8563 24.4658 56.5204C25.1194 57.1844 26.1056 57.2081 26.8898 56.6034C27.1988 56.3662 27.2701 56.1646 27.1275 55.7733C26.2601 53.4611 27.5434 51.0184 29.9199 50.3544C30.0506 50.3188 30.1694 50.2714 30.2882 50.2358C29.9674 47.5678 31.4646 45.469 34.3757 45.1844C34.4114 43.9038 34.8867 42.8129 35.9086 41.9947C36.9186 41.1765 38.0949 40.9631 39.3782 41.1646C39.7347 39.5994 40.5902 38.4967 42.0637 37.9749C43.5608 37.4413 44.9392 37.7733 46.1987 38.7575C47.6959 36.7417 49.1693 34.7615 50.6546 32.7694C49.6208 31.5125 48.6227 30.303 47.6127 29.0816C45.1531 26.0935 42.6934 23.0935 40.2219 20.1054C40.1031 19.9631 39.8179 19.8089 39.6634 19.8445C38.6534 20.1172 37.6553 20.4018 36.5621 20.6982ZM11.5497 38.8405C11.823 38.5322 12.0131 38.3069 12.227 38.1054C16.1957 34.133 20.1882 30.1726 24.145 26.2002C24.5609 25.7852 25.0124 25.5599 25.5947 25.5125C27.4483 25.3939 29.302 25.2753 31.1556 25.1212C31.9517 25.05 32.4508 25.3346 32.831 26.0342C33.7935 27.801 34.8154 29.5441 35.8135 31.2872C36.1462 31.8801 36.6215 32.2714 37.3107 32.3188C37.9999 32.3662 38.5465 32.0816 38.9148 31.5006C39.3188 30.8722 39.2594 30.2318 38.9029 29.5915C37.5365 27.1844 36.1819 24.7773 34.7916 22.382C34.6728 22.1686 34.3995 21.9907 34.1619 21.9196C31.7022 21.1844 29.2307 20.4848 26.7591 19.7733C26.4621 19.6903 26.1413 19.6311 25.8323 19.6311C23.4915 19.6192 21.1625 19.6311 18.8217 19.6192C18.4177 19.6192 18.1801 19.7496 17.9305 20.0579C14.9599 23.8524 11.9893 27.6587 8.95932 31.4176C8.47214 32.0224 8.42461 32.4492 8.7692 33.1251C9.73168 34.9631 10.5872 36.8484 11.5497 38.8405ZM56.3582 27.5994C53.1499 23.639 49.9773 19.7141 46.781 15.7654C45.1887 16.7733 43.6678 17.7338 42.1231 18.7299C45.5452 22.8919 48.9079 26.971 52.2944 31.0975C53.6609 29.9235 54.9798 28.7852 56.3582 27.5994ZM6.83237 30.3741C9.90991 26.4729 12.9399 22.6311 15.9937 18.7417C14.4252 17.7457 12.8924 16.7733 11.3239 15.7892C8.44838 19.5125 5.62037 23.1884 2.75671 26.888C4.14695 28.0619 5.4659 29.2002 6.83237 30.3741ZM43.0024 47.7338C42.9073 47.5322 42.8004 47.1054 42.5389 46.8208C41.6121 45.8247 40.6378 44.8643 39.6515 43.9275C38.9624 43.2753 37.9523 43.3228 37.2869 43.9512C36.6215 44.5797 36.5146 45.6587 37.1562 46.3583C38.1068 47.3899 39.1049 48.3741 40.1387 49.3228C40.6734 49.8208 41.3626 49.8563 42.028 49.5243C42.6697 49.2042 42.9667 48.6469 43.0024 47.7338ZM38.8554 51.9077C38.7603 51.718 38.6653 51.2793 38.4039 51.0065C37.4771 50.0105 36.5027 49.05 35.5165 48.1133C34.8154 47.4611 33.8292 47.4967 33.1519 48.1251C32.4865 48.7417 32.3557 49.7971 32.9736 50.4848C33.948 51.552 34.9699 52.5599 36.0393 53.5322C36.5621 54.0065 37.2275 54.0303 37.8692 53.7101C38.5227 53.3781 38.8198 52.8326 38.8554 51.9077ZM34.2094 55.7496C34.0549 55.3939 33.9717 54.9789 33.7341 54.7061C33.2232 54.1014 32.6647 53.5441 32.0706 53.0224C31.3933 52.4295 30.3951 52.4769 29.7416 53.0816C29.1119 53.6627 28.9811 54.6943 29.5515 55.3939C30.0862 56.0461 30.6922 56.6508 31.3339 57.1963C31.8686 57.6587 32.5459 57.6587 33.1756 57.3386C33.8054 57.0184 34.1143 56.4848 34.2094 55.7496ZM43.4301 40.1212C42.7053 40.133 42.1706 40.465 41.8735 41.1054C41.5527 41.7931 41.6596 42.469 42.1587 43.0382C42.6578 43.5955 43.1925 44.1291 43.751 44.6152C44.3094 45.1014 44.9748 45.1607 45.6403 44.8524C46.3057 44.5322 46.6384 43.9749 46.6265 43.2279C46.6027 42.137 44.5233 40.1212 43.4301 40.1212Z" fill="#79756F"/>
</g>
<defs>
<clipPath id="clip0">
<path d="M0 0H59.1743V60H0V0Z" fill="white"/>
</clipPath>
</defs>
</svg>
