<svg width="32" height="32" viewBox="0 0 32 32" fill="none" xmlns="http://www.w3.org/2000/svg">
<path d="M27.675 7.19375L24.3469 3.86875C24.1121 3.63295 23.8331 3.44586 23.5258 3.31822C23.2185 3.19058 22.889 3.12492 22.5563 3.125C21.8781 3.125 21.2406 3.39063 20.7625 3.86875L17.1813 7.45C16.9454 7.68477 16.7584 7.96382 16.6307 8.27111C16.5031 8.5784 16.4374 8.90788 16.4375 9.24063C16.4375 9.91875 16.7031 10.5563 17.1813 11.0344L19.8 13.6531C19.187 15.0043 18.3348 16.2334 17.2844 17.2812C16.2366 18.3342 15.0076 19.1895 13.6563 19.8062L11.0375 17.1875C10.8027 16.9517 10.5237 16.7646 10.2164 16.637C9.9091 16.5093 9.57962 16.4437 9.24688 16.4438C8.56875 16.4438 7.93125 16.7094 7.45313 17.1875L3.86875 20.7656C3.63266 21.0008 3.44541 21.2804 3.31777 21.5882C3.19012 21.8961 3.12461 22.2261 3.125 22.5594C3.125 23.2375 3.39063 23.875 3.86875 24.3531L7.19063 27.675C7.95313 28.4406 9.00625 28.875 10.0875 28.875C10.3156 28.875 10.5344 28.8563 10.75 28.8188C14.9625 28.125 19.1406 25.8844 22.5125 22.5156C25.8813 19.15 28.1188 14.975 28.8219 10.75C29.0344 9.45937 28.6063 8.13125 27.675 7.19375Z" fill="#FF6D6A"/>
</svg>
