<svg width="37" height="36" viewBox="0 0 37 36" fill="none" xmlns="http://www.w3.org/2000/svg">
<path d="M0.4375 18C0.4375 8.05888 8.49638 0 18.4375 0H36.8666V17.7855C36.8666 27.8451 28.6038 36 18.5441 36C8.60302 36 0.4375 27.9411 0.4375 18Z" fill="#C4C4C4"/>
<path d="M19.6633 7C13.516 7 8.53223 11.9248 8.53223 18C8.53223 24.0752 13.516 29 19.6633 29C25.8107 29 30.7945 24.0752 30.7945 18C30.7945 11.9248 25.8107 7 19.6633 7ZM20.9442 21.6537C19.9145 21.6537 18.9462 21.1036 18.6146 20.4791C18.6146 20.4791 18.0607 22.6498 17.9443 23.0687C17.5314 24.5496 16.3168 26.031 16.2223 26.1523C16.1565 26.2367 16.011 26.2103 15.9959 26.0983C15.9702 25.9096 15.66 24.0414 16.0249 22.5177C16.2073 21.7525 17.2508 17.3831 17.2508 17.3831C17.2508 17.3831 16.947 16.7815 16.947 15.8921C16.947 14.4955 17.766 13.453 18.7858 13.453C19.6529 13.453 20.0715 14.0965 20.0715 14.8678C20.0715 15.7293 19.5167 17.0176 19.2304 18.2113C18.991 19.2108 19.7371 20.0262 20.7347 20.0262C22.5414 20.0262 23.7573 17.7333 23.7573 15.0161C23.7573 12.9514 22.3508 11.4052 19.7904 11.4052C16.8987 11.4052 15.0954 13.5368 15.0954 15.9182C15.0954 16.7387 15.3409 17.3183 15.7249 17.7659C15.901 17.9719 15.926 18.0547 15.862 18.291C15.8158 18.4645 15.7117 18.8818 15.6675 19.0468C15.604 19.2858 15.4086 19.3709 15.1897 19.2829C13.8583 18.7456 13.2375 17.3039 13.2375 15.6832C13.2375 13.0065 15.5215 9.79687 20.0521 9.79687C23.6926 9.79687 26.0888 12.4 26.0888 15.1948C26.089 18.8922 24.009 21.6537 20.9442 21.6537Z" fill="white"/>
</svg>
