<svg width="32" height="32" viewBox="0 0 32 32" fill="none" xmlns="http://www.w3.org/2000/svg">
<path d="M19.8621 0L0 19.8621L12.1379 32L32 12.1379V0H19.8621ZM25.3793 8.82759C24.9428 8.82759 24.5161 8.69815 24.1532 8.45566C23.7903 8.21316 23.5074 7.86849 23.3404 7.46523C23.1734 7.06197 23.1297 6.61824 23.2148 6.19015C23.3 5.76205 23.5102 5.36882 23.8188 5.06018C24.1274 4.75154 24.5207 4.54135 24.9488 4.4562C25.3769 4.37104 25.8206 4.41475 26.2239 4.58178C26.6271 4.74882 26.9718 5.03168 27.2143 5.3946C27.4568 5.75753 27.5862 6.18421 27.5862 6.62069C27.5862 7.206 27.3537 7.76733 26.9398 8.1812C26.5259 8.59507 25.9646 8.82759 25.3793 8.82759Z" fill="#FCD757"/>
</svg>
