<svg width="32" height="32" viewBox="0 0 32 32" fill="none" xmlns="http://www.w3.org/2000/svg">
<path d="M16.0003 5.33268C21.8803 5.33268 26.667 10.1193 26.667 15.9993C26.667 21.8793 21.8803 26.666 16.0003 26.666C10.1203 26.666 5.33366 21.8793 5.33366 15.9993C5.33366 10.1193 10.1203 5.33268 16.0003 5.33268ZM16.0003 2.66602C8.63633 2.66602 2.66699 8.63535 2.66699 15.9993C2.66699 23.3633 8.63633 29.3327 16.0003 29.3327C23.3643 29.3327 29.3337 23.3633 29.3337 15.9993C29.3337 8.63535 23.3643 2.66602 16.0003 2.66602ZM21.067 20.5327L17.3337 15.5553V9.33268H14.667V16.4433L18.9337 22.1314L21.067 20.5313V20.5327Z" fill="#FF6D6A"/>
</svg>
