<svg width="37" height="36" viewBox="0 0 37 36" fill="none" xmlns="http://www.w3.org/2000/svg">
<path d="M0.236328 18C0.236328 8.05888 8.2952 0 18.2363 0H36.6654V17.7855C36.6654 27.8451 28.4026 36 18.343 36C8.40185 36 0.236328 27.9411 0.236328 18Z" fill="#C4C4C4"/>
<path d="M16.3797 28C15.3295 28 14.2485 27.9187 13.1611 27.7558C11.2457 27.4685 9.30691 26.5108 8.75827 26.2241L7.31934 25.472L8.87723 24.9823C10.5802 24.4471 11.6161 24.115 12.8985 23.595C11.6145 23.0006 10.6248 21.9313 10.1485 20.5491L9.78606 19.4974L10.0833 19.5408C9.80144 19.2693 9.57891 18.9937 9.4064 18.7431C8.79292 17.8524 8.46811 16.764 8.53722 15.8313L8.60541 14.9133L9.18035 15.1262C8.93781 14.6884 8.76253 14.2208 8.65951 13.7307C8.40845 12.5355 8.61857 11.2658 9.25132 10.1555L9.75215 9.27663L10.422 10.0457C12.5403 12.4782 15.2235 13.9211 18.408 14.3435C18.2779 13.4865 18.3754 12.6593 18.698 11.9179C19.0735 11.0547 19.7417 10.3227 20.6296 9.80089C21.6157 9.22154 22.8115 8.94082 23.9968 9.01042C25.2543 9.08428 26.3961 9.53468 27.3029 10.3138C27.7457 10.2038 28.072 10.0864 28.513 9.9277C28.7783 9.83224 29.0792 9.72384 29.4557 9.59986L30.8431 9.14291L29.9384 11.613C29.998 11.6082 30.0596 11.6041 30.1239 11.6014L31.6054 11.5373L30.7297 12.6813C30.6795 12.7468 30.6667 12.7654 30.649 12.7911C30.5784 12.8928 30.4905 13.0192 29.2886 14.5534C28.9877 14.9376 28.8374 15.4379 28.8654 15.9625C28.9719 17.9562 28.7161 19.7599 28.1044 21.3235C27.526 22.8027 26.6295 24.0719 25.4404 25.0958C23.9688 26.3626 22.0924 27.2299 19.8631 27.6734C18.7695 27.8909 17.5951 28 16.3797 28Z" fill="white"/>
</svg>
