<svg width="60" height="60" viewBox="0 0 60 60" fill="none" xmlns="http://www.w3.org/2000/svg">
<g clip-path="url(#clip0)">
<path d="M0 58.4777C0.440625 57.3785 0.805078 56.2406 1.33477 55.1858C3.9 50.0811 7.93125 46.6872 13.3676 44.913C15.6949 44.1536 18.0621 44.0329 20.4668 44.1677C20.9496 44.1958 21.2625 44.1184 21.5742 43.6731C23.1703 41.3973 25.3617 40.0074 28.0957 39.4777C28.2234 39.4531 28.3465 39.4039 28.5527 39.3418C27.5414 38.3316 26.523 37.4164 25.6301 36.3909C24.8098 35.4534 24.0211 35.1487 22.6887 35.3269C12.4664 36.6956 4.10156 28.7115 2.84648 20.2738C2.49576 18.0102 2.60054 15.6994 3.15469 13.4768C3.32109 12.8159 3.68086 12.3975 4.36172 12.3049C5.61328 12.1245 6.86367 11.9229 8.12226 11.7987C8.92617 11.719 9.46641 12.21 9.49336 12.9038C9.52031 13.5975 9.06914 14.0393 8.27812 14.1225C7.44375 14.2104 6.61172 14.3089 5.77617 14.3804C5.42461 14.4108 5.2957 14.5702 5.23594 14.9218C4.44492 19.6621 5.5957 23.8692 8.71758 27.5115C11.2395 30.4529 14.359 32.4053 18.2461 32.996C19.5607 33.214 20.9005 33.2342 22.2211 33.0557C22.0031 32.8213 21.8695 32.6667 21.7172 32.519L14.0555 24.8442C13.8989 24.6967 13.751 24.5402 13.6125 24.3755C13.4266 24.1514 13.3316 23.8657 13.3465 23.5749C13.3613 23.2841 13.4848 23.0095 13.6925 22.8054C13.9002 22.6014 14.177 22.4828 14.468 22.4732C14.759 22.4636 15.043 22.5637 15.2637 22.7536C15.4124 22.88 15.554 23.0146 15.6879 23.1567C18.2566 25.7255 20.823 28.2959 23.3871 30.8678C23.5324 31.0154 23.5934 31.2475 23.7902 31.3623C24.1113 29.9502 24.0539 28.6494 23.843 27.3568C23.0988 22.8227 20.6484 19.3879 16.9617 16.7581C16.7871 16.6339 16.602 16.5238 16.4332 16.3902C15.8941 15.9671 15.7641 15.3073 16.1086 14.7847C16.4602 14.2421 17.2055 14.0475 17.7492 14.487C19.1016 15.5687 20.5266 16.5964 21.6973 17.8609C24.9785 21.3965 26.5418 25.6306 26.3449 30.4717C26.3109 31.3061 26.1281 32.1334 26.0496 32.9667C26.0285 33.1905 26.059 33.4987 26.1973 33.6452C27.0176 34.51 27.8672 35.3386 28.7754 36.2468V15.1433C27.3996 14.9792 26.0344 14.903 24.7031 14.6429C20.0063 13.7264 17.1281 10.7322 16.4238 5.98723C16.2105 4.54931 16.241 3.07389 16.1695 1.61488C16.1309 0.829704 16.4402 0.256646 17.2242 0H19.9195C20.9895 0.199223 22.077 0.335163 23.1281 0.609387C27.4957 1.75199 30.0258 4.64892 30.791 9.03182C31.0934 10.7674 31.084 12.5616 31.159 14.3323C31.2129 15.5698 31.1695 16.8109 31.1695 18.1445C31.8152 17.3066 32.352 16.5214 32.9766 15.8136C36.5754 11.7354 41.052 9.57323 46.5469 9.76308C47.5922 9.79941 48.6305 10.0396 49.6699 10.1979C50.4141 10.315 50.816 10.7463 50.9824 11.4869C52.0828 16.4089 51.2402 20.9606 48.2648 25.0423C45.4734 28.8732 41.7773 31.3565 37.0488 32.1651C35.2918 32.4528 33.4996 32.4528 31.7426 32.1651C31.5727 32.1393 31.4016 32.117 31.1977 32.0877V39.3535C32.8383 39.5879 34.3758 40.1129 35.7574 41.0446C36.8264 41.7386 37.7433 42.6424 38.4527 43.7012C38.7199 44.1102 39.0012 44.218 39.457 44.17C41.5406 43.952 43.6466 44.1224 45.668 44.6727C52.7039 46.597 57.4094 51.0205 59.7844 57.9433C59.8465 58.1238 59.9285 58.2949 60.0012 58.4754V59.9988H0V58.4777ZM2.8125 57.6187H57.1875C57.0984 57.3914 57.0328 57.2097 56.9531 57.0328C53.918 49.8596 46.2891 45.5341 38.5687 46.6029C37.8094 46.7083 37.4379 46.5302 37.0605 45.8821C33.75 40.1961 26.25 40.1961 22.9348 45.8892C22.5656 46.522 22.2012 46.7095 21.4852 46.6146C16.2762 45.9478 11.6695 47.333 7.67344 50.7162C5.475 52.5795 3.87891 54.8835 2.8125 57.6187ZM32.8453 29.7275L33.0316 29.9619C33.198 29.976 33.3633 29.9947 33.5297 30.0029C38.298 30.2373 42.2145 28.4431 45.3598 24.9263C48.4488 21.4699 49.623 17.4414 48.8824 12.8405C48.825 12.4889 48.675 12.3541 48.3328 12.2944C46.8314 12.0213 45.2953 11.9968 43.7859 12.2217C37.8176 13.1463 32.7961 17.8527 31.4637 23.7544C31.1355 25.2064 31.1203 26.6724 31.3535 28.2474C31.5621 28.1384 31.6254 27.9111 31.7707 27.7634C33.791 25.7267 35.8254 23.7016 37.8516 21.6696C38.2102 21.3098 38.6203 20.9524 39.1277 21.1738C39.4999 21.3516 39.8048 21.6446 39.9973 22.0094C40.2316 22.4782 39.9363 22.9047 39.5871 23.2551C37.5309 25.3107 35.4723 27.3654 33.4113 29.4193C33.2648 29.5658 33.0352 29.6268 32.8441 29.7264L32.8453 29.7275ZM28.6828 10.86C28.6969 8.48571 27.4102 5.70363 25.7297 4.41454C23.6004 2.77974 21.1125 2.42231 18.5273 2.34731C18.3539 8.94744 21.1453 12.203 27.082 12.6026C26.8922 12.4034 26.7516 12.251 26.6039 12.1034C25.6254 11.1225 24.6422 10.1475 23.6684 9.1619C23.2535 8.74119 23.1633 8.2443 23.4398 7.71578C23.5559 7.48747 23.749 7.30762 23.9849 7.20809C24.2209 7.10856 24.4844 7.09578 24.7289 7.17202C25.0162 7.28616 25.2756 7.46082 25.4895 7.68413C26.5383 8.70251 27.5625 9.74082 28.6816 10.8611L28.6828 10.86Z" fill="#79756F"/>
<mask id="mask0" mask-type="alpha" maskUnits="userSpaceOnUse" x="0" y="0" width="60" height="60">
<g clip-path="url(#clip1)">
<path d="M0 58.4777C0.440625 57.3785 0.805078 56.2406 1.33477 55.1858C3.9 50.0811 7.93125 46.6872 13.3676 44.913C15.6949 44.1536 18.0621 44.0329 20.4668 44.1677C20.9496 44.1958 21.2625 44.1184 21.5742 43.6731C23.1703 41.3973 25.3617 40.0074 28.0957 39.4777C28.2234 39.4531 28.3465 39.4039 28.5527 39.3418C27.5414 38.3316 26.523 37.4164 25.6301 36.3909C24.8098 35.4534 24.0211 35.1487 22.6887 35.3269C12.4664 36.6956 4.10156 28.7115 2.84648 20.2738C2.49576 18.0102 2.60054 15.6994 3.15469 13.4768C3.32109 12.8159 3.68086 12.3975 4.36172 12.3049C5.61328 12.1245 6.86367 11.9229 8.12226 11.7987C8.92617 11.719 9.46641 12.21 9.49336 12.9038C9.52031 13.5975 9.06914 14.0393 8.27812 14.1225C7.44375 14.2104 6.61172 14.3089 5.77617 14.3804C5.42461 14.4108 5.2957 14.5702 5.23594 14.9218C4.44492 19.6621 5.5957 23.8692 8.71758 27.5115C11.2395 30.4529 14.359 32.4053 18.2461 32.996C19.5607 33.214 20.9005 33.2342 22.2211 33.0557C22.0031 32.8213 21.8695 32.6667 21.7172 32.519L14.0555 24.8442C13.8989 24.6967 13.751 24.5402 13.6125 24.3755C13.4266 24.1514 13.3316 23.8657 13.3465 23.5749C13.3613 23.2841 13.4848 23.0095 13.6925 22.8054C13.9002 22.6014 14.177 22.4828 14.468 22.4732C14.759 22.4636 15.043 22.5637 15.2637 22.7536C15.4124 22.88 15.554 23.0146 15.6879 23.1567C18.2566 25.7255 20.823 28.2959 23.3871 30.8678C23.5324 31.0154 23.5934 31.2475 23.7902 31.3623C24.1113 29.9502 24.0539 28.6494 23.843 27.3568C23.0988 22.8227 20.6484 19.3879 16.9617 16.7581C16.7871 16.6339 16.602 16.5238 16.4332 16.3902C15.8941 15.9671 15.7641 15.3073 16.1086 14.7847C16.4602 14.2421 17.2055 14.0475 17.7492 14.487C19.1016 15.5687 20.5266 16.5964 21.6973 17.8609C24.9785 21.3965 26.5418 25.6306 26.3449 30.4717C26.3109 31.3061 26.1281 32.1334 26.0496 32.9667C26.0285 33.1905 26.059 33.4987 26.1973 33.6452C27.0176 34.51 27.8672 35.3386 28.7754 36.2468V15.1433C27.3996 14.9792 26.0344 14.903 24.7031 14.6429C20.0063 13.7264 17.1281 10.7322 16.4238 5.98723C16.2105 4.54931 16.241 3.07389 16.1695 1.61488C16.1309 0.829704 16.4402 0.256646 17.2242 0H19.9195C20.9895 0.199223 22.077 0.335163 23.1281 0.609387C27.4957 1.75199 30.0258 4.64892 30.791 9.03182C31.0934 10.7674 31.084 12.5616 31.159 14.3323C31.2129 15.5698 31.1695 16.8109 31.1695 18.1445C31.8152 17.3066 32.352 16.5214 32.9766 15.8136C36.5754 11.7354 41.052 9.57323 46.5469 9.76308C47.5922 9.79941 48.6305 10.0396 49.6699 10.1979C50.4141 10.315 50.816 10.7463 50.9824 11.4869C52.0828 16.4089 51.2402 20.9606 48.2648 25.0423C45.4734 28.8732 41.7773 31.3565 37.0488 32.1651C35.2918 32.4528 33.4996 32.4528 31.7426 32.1651C31.5727 32.1393 31.4016 32.117 31.1977 32.0877V39.3535C32.8383 39.5879 34.3758 40.1129 35.7574 41.0446C36.8264 41.7386 37.7433 42.6424 38.4527 43.7012C38.7199 44.1102 39.0012 44.218 39.457 44.17C41.5406 43.952 43.6466 44.1224 45.668 44.6727C52.7039 46.597 57.4094 51.0205 59.7844 57.9433C59.8465 58.1238 59.9285 58.2949 60.0012 58.4754V59.9988H0V58.4777ZM2.8125 57.6187H57.1875C57.0984 57.3914 57.0328 57.2097 56.9531 57.0328C53.918 49.8596 46.2891 45.5341 38.5687 46.6029C37.8094 46.7083 37.4379 46.5302 37.0605 45.8821C33.75 40.1961 26.25 40.1961 22.9348 45.8892C22.5656 46.522 22.2012 46.7095 21.4852 46.6146C16.2762 45.9478 11.6695 47.333 7.67344 50.7162C5.475 52.5795 3.87891 54.8835 2.8125 57.6187ZM32.8453 29.7275L33.0316 29.9619C33.198 29.976 33.3633 29.9947 33.5297 30.0029C38.298 30.2373 42.2145 28.4431 45.3598 24.9263C48.4488 21.4699 49.623 17.4414 48.8824 12.8405C48.825 12.4889 48.675 12.3541 48.3328 12.2944C46.8314 12.0213 45.2953 11.9968 43.7859 12.2217C37.8176 13.1463 32.7961 17.8527 31.4637 23.7544C31.1355 25.2064 31.1203 26.6724 31.3535 28.2474C31.5621 28.1384 31.6254 27.9111 31.7707 27.7634C33.791 25.7267 35.8254 23.7016 37.8516 21.6696C38.2102 21.3098 38.6203 20.9524 39.1277 21.1738C39.4999 21.3516 39.8048 21.6446 39.9973 22.0094C40.2316 22.4782 39.9363 22.9047 39.5871 23.2551C37.5309 25.3107 35.4723 27.3654 33.4113 29.4193C33.2648 29.5658 33.0352 29.6268 32.8441 29.7264L32.8453 29.7275ZM28.6828 10.86C28.6969 8.48571 27.4102 5.70363 25.7297 4.41454C23.6004 2.77974 21.1125 2.42231 18.5273 2.34731C18.3539 8.94744 21.1453 12.203 27.082 12.6026C26.8922 12.4034 26.7516 12.251 26.6039 12.1034C25.6254 11.1225 24.6422 10.1475 23.6684 9.1619C23.2535 8.74119 23.1633 8.2443 23.4398 7.71578C23.5559 7.48747 23.749 7.30762 23.9849 7.20809C24.2209 7.10856 24.4844 7.09578 24.7289 7.17202C25.0162 7.28616 25.2756 7.46082 25.4895 7.68413C26.5383 8.70251 27.5625 9.74082 28.6816 10.8611L28.6828 10.86Z" fill="#79756F"/>
</g>
</mask>
<g mask="url(#mask0)">
<path d="M12 -4L40 5L27 18L15.5 12.5L12 -4Z" fill="#4EC3E0"/>
</g>
</g>
<defs>
<clipPath id="clip0">
<path d="M0 0H60V60H0V0Z" fill="white"/>
</clipPath>
<clipPath id="clip1">
<rect width="60" height="60" fill="white"/>
</clipPath>
</defs>
</svg>
