<svg width="60" height="36" viewBox="0 0 60 36" fill="none" xmlns="http://www.w3.org/2000/svg">
<g clip-path="url(#clip0)">
<path d="M17.002 8.84344C17.331 8.2393 17.8795 8.01962 18.5376 8.07454C20.6765 8.12946 22.8155 8.34915 24.8447 9.06313C28.4096 10.3812 30.8228 12.8527 32.1939 16.3677C32.2488 16.5325 32.3036 16.6972 32.4133 16.862H32.4681C32.852 16.3677 33.1811 15.8734 33.6199 15.3791C35.2652 13.5667 37.3493 12.688 39.7076 12.3584C40.4754 12.2486 41.2433 12.2486 42.0659 12.2486C42.7241 12.2486 43.108 12.633 43.2177 13.2372C43.821 16.862 41.6272 21.2557 38.3913 23.0132C36.8557 23.837 35.1555 24.1666 33.3456 24.2764C33.3456 27.352 33.3456 30.3727 33.3456 33.3934C32.6327 33.3934 31.9197 33.3934 31.2616 33.3934C31.2616 30.6473 31.2616 27.9012 31.2067 25.1552C31.2067 24.8806 31.2067 24.6609 31.2067 24.3313C30.4389 24.2764 29.7259 24.2215 29.0129 24.1117C25.448 23.6174 22.3219 22.2443 20.0184 19.3884C19.3054 18.5096 19.3054 17.9055 19.8539 17.4661C20.3475 17.0817 21.0605 17.1915 21.6637 18.0154C23.4736 20.3221 25.9416 21.4205 28.7935 21.9148C29.5614 22.0246 30.3292 22.0796 31.2067 22.1894C31.097 18.949 30.384 16.0382 28.2451 13.6765C25.8319 11.0403 22.7058 10.3263 19.1957 10.1616C19.3054 11.1501 19.4151 12.0289 19.5248 12.9076C19.6345 13.7315 19.1409 14.3905 18.4279 14.3356C17.8795 14.2807 17.5504 14.0061 17.4956 13.4569C17.3859 12.7429 17.2762 11.974 17.1665 11.26C17.002 10.4911 17.002 9.66727 17.002 8.84344ZM40.969 14.4454C36.5815 14.3356 32.852 18.0703 33.3456 22.0796C37.9526 22.1345 40.9142 19.0039 40.969 14.4454Z" fill="#89C23F"/>
<path d="M19.1957 17.1366C18.5924 17.1366 18.0439 16.5873 18.0439 15.8734C18.0439 15.2692 18.4827 14.7749 19.0311 14.72C19.6893 14.6651 20.2377 15.3241 20.2377 16.0381C20.2377 16.5873 19.7441 17.1366 19.1957 17.1366Z" fill="#89C23F"/>
<path d="M0 17.0257C4.93601 11.4237 10.585 6.70047 17.2761 3.29533C20.6764 1.59276 24.2962 0.384483 28.1353 0.0549527C32.2486 -0.274577 36.1974 0.329561 40.0914 1.7026C46.1792 3.84455 51.3345 7.46937 55.777 12.0828C57.0932 13.4558 58.2998 14.9387 59.5064 16.4216C60.1645 17.2454 60.1645 17.7397 59.3967 18.5635C54.1865 24.3303 48.2633 29.1634 41.1335 32.4038C37.0201 34.2711 32.7422 35.2597 28.1901 34.9302C24.7898 34.6556 21.5539 33.7219 18.4826 32.294C13.1079 29.8774 8.39122 26.3624 4.11335 22.2982C2.68739 20.9252 1.37112 19.4423 0 18.0143C0 17.6848 0 17.3553 0 17.0257ZM57.0932 17.575C56.9287 17.3553 56.8739 17.2454 56.7642 17.1356C53.8026 13.4009 50.3473 10.2155 46.3437 7.68906C41.7367 4.72329 36.8007 2.85596 31.2614 2.52643C27.2578 2.30674 23.4186 3.24041 19.7989 4.88806C13.3821 7.7989 8.00731 12.1926 3.12614 17.3003C3.0713 17.3553 3.01645 17.4651 3.01645 17.52C3.0713 17.575 3.12614 17.6299 3.12614 17.6848C7.67824 22.5179 12.7239 26.6919 18.702 29.6028C21.9927 31.2504 25.5027 32.3489 29.2322 32.4587C33.181 32.6235 36.8556 31.58 40.4205 29.9872C44.6984 28.0101 48.4826 25.3738 52.0475 22.2982C53.7477 20.7604 55.3931 19.1677 57.0932 17.575Z" fill="#79756F"/>
</g>
<defs>
<clipPath id="clip0">
<path d="M0 0H60V35.04H0V0Z" fill="white"/>
</clipPath>
</defs>
</svg>
