<svg width="72" height="72" viewBox="0 0 72 72" fill="none" xmlns="http://www.w3.org/2000/svg">
<path d="M59.7882 52.8842L50.5332 57.2604C49.2617 54.8801 46.8075 53.3721 44.102 53.2982L35.5566 53.0616C34.2112 53.0173 32.8806 52.6772 31.6683 52.0563L30.796 51.6128C26.3459 49.2916 21.0383 49.3064 16.603 51.6276L16.6621 49.6612C16.6769 49.0107 16.1594 48.4637 15.5089 48.4489L6.15041 48.1976C5.4999 48.1828 4.95288 48.7002 4.93809 49.3508L4.37629 69.9011C4.3615 70.5516 4.87896 71.0986 5.52947 71.1134L14.888 71.3647H14.9176C15.5533 71.3647 16.0855 70.862 16.1003 70.2115L16.1299 69.221L18.5693 67.92C19.5303 67.4025 20.6391 67.2842 21.6888 67.5799L36.2219 71.6604C36.2514 71.6752 36.2662 71.6752 36.2958 71.6752C37.3455 71.8969 38.41 72.0004 39.4892 72.0004C41.766 72.0004 44.0132 71.5126 46.0683 70.5664C46.1126 70.5368 46.1718 70.522 46.2161 70.4924L67.2839 56.8612C67.8013 56.5212 67.9788 55.8263 67.6683 55.2941C66.1011 52.5146 62.6416 51.4501 59.7882 52.8842ZM6.78614 68.7627L7.28881 50.5779L14.2966 50.7701L13.7939 68.9549L6.78614 68.7627ZM45.0038 68.4522C42.4313 69.6054 39.5779 69.9306 36.8132 69.3688L22.3245 65.3031C20.6983 64.8448 18.9537 65.037 17.4605 65.8354L16.2186 66.5006L16.5586 54.407C20.4913 51.7902 25.5475 51.5241 29.7463 53.6974L30.6186 54.1409C32.1414 54.9245 33.812 55.3532 35.527 55.4124L44.0724 55.6489C46.4675 55.7228 48.5077 57.423 48.9956 59.7738L36.281 59.4189C35.6305 59.4041 35.0835 59.9216 35.0687 60.5721C35.0539 61.2226 35.5714 61.7696 36.2219 61.7844L50.267 62.1688H50.2966C50.9323 62.1688 51.4646 61.6662 51.4794 61.0156C51.4942 60.4982 51.4498 59.9955 51.3611 59.4781L60.8527 54.9984C60.8675 54.9984 60.8675 54.9836 60.8822 54.9836C62.2276 54.3035 63.8539 54.5253 64.9627 55.5602L45.0038 68.4522Z" fill="#79756F"/>
<path d="M37.0053 49.8688C34.2554 49.8688 31.9342 49.1739 29.7609 48.5234C27.558 47.8581 25.4734 47.2371 23.241 47.4885C22.6644 47.5624 22.1026 47.385 21.6886 47.0154C21.2747 46.6458 21.0381 46.0987 21.0529 45.5222C21.112 43.0827 21.5112 36.7994 23.9654 31.2404C25.3552 28.1061 27.1884 25.6519 29.4504 23.9222C32.1708 21.8376 35.4973 20.8174 39.3412 20.8914C49.6016 21.1279 55.3675 20.5365 57.8956 20.1817C58.5166 20.0782 59.1227 20.2704 59.5663 20.7139C60.0098 21.1427 60.202 21.7489 60.1133 22.3698C59.7732 24.7797 58.901 29.5254 56.9494 34.3599C54.4804 40.4511 51.08 44.7238 46.8665 47.0302C42.9486 49.1591 39.7552 49.8688 37.0053 49.8688ZM24.2907 45.6552C26.3753 45.6552 28.2677 46.2318 30.2636 46.8232C34.4771 48.0946 38.8385 49.3957 45.9942 45.4778C55.0718 40.4955 57.7478 26.3468 58.3392 22.1185C58.3539 22.0593 58.3391 22.015 58.2948 21.9706C58.2652 21.941 58.2061 21.9263 58.147 21.9263H58.1322C55.5597 22.2959 49.6755 22.902 39.2821 22.6655C32.9839 22.5324 28.3712 25.6519 25.5769 31.9501C23.241 37.2133 22.8714 43.2158 22.8122 45.5517C22.8122 45.6109 22.827 45.6552 22.8566 45.6848C22.8862 45.7143 22.9453 45.7291 23.0044 45.7144H23.0192C23.4628 45.67 23.8915 45.6552 24.2907 45.6552Z" fill="#79756F"/>
<path d="M39.909 43.8203L40.1124 44.1051L40.3159 43.8203L40.8426 43.0829L40.854 43.0669L40.8562 43.0625L40.8642 43.0506C40.8751 43.0346 40.8916 43.0108 40.9135 42.9798C40.9571 42.9179 41.0218 42.8279 41.1057 42.7147C41.2737 42.4883 41.5187 42.1697 41.8281 41.7978C42.4476 41.0531 43.3218 40.0987 44.3492 39.2425L44.3503 39.2416C46.0661 37.7959 47.1081 36.6386 47.7193 35.5691C48.3356 34.4906 48.5054 33.5157 48.5054 32.456C48.5054 31.4061 48.0946 30.2787 47.4313 29.4272C46.8387 28.656 45.7394 27.75 43.9469 27.75C41.9543 27.75 40.7415 28.5683 40.0555 29.333C39.3779 28.6 38.2579 27.781 36.6398 27.7606C35.3405 27.7385 34.1282 28.2278 33.217 29.1168L33.217 29.1168L33.2148 29.1189C32.2737 30.06 31.73 31.3451 31.73 32.6667C31.73 35.75 33.5739 37.3448 35.2745 38.8158L35.3138 38.8497L35.3146 38.8504C36.6372 39.9848 37.6536 41.0405 38.34 41.8143C38.6831 42.2012 38.9436 42.5174 39.1184 42.7374C39.2058 42.8474 39.2717 42.9333 39.3157 42.9918C39.3377 43.0211 39.3541 43.0433 39.3648 43.0581L39.3702 43.0656L39.3709 43.0669L39.3823 43.0829L39.909 43.8203ZM34.4623 30.3799L34.4623 30.3799L34.4638 30.3784C34.8424 29.9998 35.5074 29.5462 36.5017 29.5254L36.5104 29.5341L36.6123 29.5352C38.3428 29.5539 39.1969 31.1079 39.2978 31.2916C39.2989 31.2937 39.3 31.2955 39.3009 31.2972L39.9724 32.6612L40.238 33.2008L40.4332 32.6319L40.9283 31.1887L40.9366 31.1643C40.9404 31.1547 40.946 31.1413 40.9536 31.1244C40.9731 31.0807 41.0049 31.0161 41.0511 30.9377C41.1437 30.7808 41.2931 30.5706 41.5173 30.3603C41.9611 29.944 42.7116 29.5141 43.9364 29.5141C44.9935 29.5141 45.6827 30.0008 46.1162 30.6088C46.5574 31.2277 46.7308 31.9713 46.7308 32.4455C46.7308 33.1547 46.668 33.8104 46.2118 34.631C45.749 35.4635 44.8727 36.4805 43.2071 37.879C41.8444 39.0194 40.7464 40.289 40.0851 41.1268C39.3806 40.2901 38.1661 38.9751 36.473 37.5128C35.5216 36.6884 34.7829 36.0183 34.2773 35.2801C33.7795 34.5534 33.5046 33.7548 33.5046 32.6667C33.5046 31.8273 33.8573 30.9751 34.4623 30.3799Z" fill="#89C23F" stroke="#89C23F" stroke-width="0.5"/>
</svg>
