<svg width="38" height="36" viewBox="0 0 38 36" fill="none" xmlns="http://www.w3.org/2000/svg">
<path d="M0.638672 18C0.638672 8.05888 8.69755 0 18.6387 0H37.0678V17.7855C37.0678 27.8451 28.8049 36 18.7453 36C8.80419 36 0.638672 27.9411 0.638672 18Z" fill="#C4C4C4"/>
<path d="M19.3641 7C13.5033 7 8.73698 11.7081 8.73438 17.4955C8.73372 19.4787 9.29558 21.4101 10.359 23.0812L10.6116 23.4783L9.53806 27.3517L13.5594 26.3095L13.9476 26.5369C15.5787 27.4934 17.4488 27.9994 19.3553 28H19.3595C25.2157 28 29.9821 23.2915 29.9847 17.5039C29.9857 14.6991 28.8815 12.0621 26.8756 10.0782C24.8696 8.09435 22.2017 7.00097 19.3641 7ZM25.6136 22.0081C25.3474 22.745 24.0715 23.4178 23.4578 23.5086C22.9073 23.5898 22.2112 23.6236 21.446 23.3836C20.9819 23.2381 20.3871 23.0439 19.6248 22.7189C16.4208 21.3521 14.3282 18.165 14.1685 17.9544C14.0088 17.7438 12.8642 16.2433 12.8642 14.6901C12.8642 13.1371 13.6894 12.3735 13.9821 12.0579C14.2751 11.742 14.6212 11.6631 14.834 11.6631C15.0468 11.6631 15.26 11.665 15.4461 11.674C15.6423 11.6837 15.9056 11.6003 16.1647 12.2157C16.4309 12.8476 17.0697 14.4005 17.1496 14.5583C17.2294 14.7165 17.2825 14.9007 17.1763 15.1113C17.0697 15.3219 16.7158 15.7764 16.3778 16.1905C16.2361 16.3641 16.0513 16.5187 16.2377 16.8346C16.4238 17.1502 17.0652 18.1837 18.0145 19.0204C19.2347 20.0955 20.2639 20.4285 20.5833 20.5866C20.9024 20.7444 21.0888 20.718 21.2752 20.5077C21.4613 20.2971 22.0737 19.5863 22.2865 19.2703C22.4993 18.9544 22.7124 19.0072 23.0051 19.1125C23.2981 19.2175 24.8683 19.9811 25.1877 20.1389C25.5071 20.2971 25.7199 20.376 25.7997 20.5077C25.8799 20.6394 25.8799 21.271 25.6136 22.0081Z" fill="white"/>
</svg>
