<svg width="36" height="36" viewBox="0 0 36 36" fill="none" xmlns="http://www.w3.org/2000/svg">
<path d="M0 18C0 8.05887 8.05887 0 18 0H36V18C36 27.9411 27.9411 36 18 36V36C8.05887 36 0 27.9411 0 18V18Z" fill="#FF6D6A"/>
<path d="M28.9002 12.5182C28.7707 12.0358 28.5168 11.596 28.1639 11.2426C27.8109 10.8893 27.3714 10.6348 26.8893 10.5047C25.1145 10.0273 18 10.0273 18 10.0273C18 10.0273 10.8855 10.0273 9.11074 10.5021C8.62837 10.6318 8.18862 10.8862 7.83564 11.2396C7.48266 11.593 7.22889 12.0331 7.0998 12.5156C6.625 14.293 6.625 18 6.625 18C6.625 18 6.625 21.707 7.0998 23.4818C7.36133 24.4619 8.1332 25.2338 9.11074 25.4953C10.8855 25.9727 18 25.9727 18 25.9727C18 25.9727 25.1145 25.9727 26.8893 25.4953C27.8693 25.2338 28.6387 24.4619 28.9002 23.4818C29.375 21.707 29.375 18 29.375 18C29.375 18 29.375 14.293 28.9002 12.5182ZM15.7402 21.4023V14.5977L21.6309 17.9746L15.7402 21.4023Z" fill="white"/>
</svg>
