<svg id="Layer_2" data-name="Layer 2" xmlns="http://www.w3.org/2000/svg" viewBox="0 0 612 165.7"><defs><style>.cls-1{stroke:#000;stroke-miterlimit:10;stroke-width:5px;}</style></defs><title>BCEATS-LOGO</title><path d="M482.83,123.1h1.28a1.51,1.51,0,0,0,1.32-2.25c-9.05-16.38-16.5-35.69-16.27-57.51,23.57,6.22,40.66-7.6,51-42.23C500,28,468.46,21.77,470.11,46.46c5.89-5,14.33-7.42,24.56-8.06-10.53,2.16-19,6.08-25,11.59a1.23,1.23,0,0,1-1.7,0C460.9,43,455.38,37.42,442,37.66c9.8-2.64,20,2.14,25.93,9.65-.16-36.39-55.81-19.42-59.05,8.29,18.18-2.69,44.32-3,54.61,7.74.85,26.91,5.86,48.18,18.33,59.38A1.54,1.54,0,0,0,482.83,123.1Z"/><path d="M105.66,64.91q3.66-3.31,3.67-10.08,0-7.76-3.6-10.65T95.09,41.29H69.71V68.22H95.93Q102,68.22,105.66,64.91Z"/><path d="M108.34,86.13q-4.23-3.52-12.27-3.53H69.71v29.05H97.06q7.47,0,11.49-3.1t4-11Q112.57,89.66,108.34,86.13Z"/><path d="M38,13.75V139.19H241.63V13.75Zm88.65,98.81a26,26,0,0,1-10.64,9.8,32.5,32.5,0,0,1-14.88,3.39H51.94V27.19H98.75q13.55,0,21.08,6.77t7.55,19.74a24,24,0,0,1-3.32,12.48,22.62,22.62,0,0,1-8.81,8.53q15.36,5.07,15.37,22.7A28.31,28.31,0,0,1,126.67,112.56Zm101,5.15q-13,10.16-35.25,10.15-15.51,0-27.49-6.27a44.88,44.88,0,0,1-18.61-17.91q-6.63-11.62-6.63-27.14t6.63-27.14a45.35,45.35,0,0,1,18.61-18q12-6.34,27.49-6.35,20.44,0,34.13,9.73V51.86Q214.32,41.43,194,41.43a40.28,40.28,0,0,0-19,4.3,30.83,30.83,0,0,0-12.69,12.2,36.85,36.85,0,0,0-4.51,18.61,36.37,36.37,0,0,0,4.58,18.61,31.25,31.25,0,0,0,12.76,12.2,40,40,0,0,0,18.89,4.3A61.23,61.23,0,0,0,212.63,109a44.23,44.23,0,0,0,15.08-8.39Z"/><path d="M256.23,26.29H321.9V38.54H270.76V70h38.18V82.13H270.76v31.63H321.9v12.11H256.23Z"/><path d="M373.76,26.29h14l39.75,99.58H412.65l-10-24.79h-44L349,125.87H334ZM398.69,89,380.74,42.39,362.79,89Z"/><path d="M538.19,124.46a50.58,50.58,0,0,1-13-3.88V108a65.66,65.66,0,0,0,28.22,6.13q21.25,0,21.26-14.31a12.53,12.53,0,0,0-2.32-7.9,19.55,19.55,0,0,0-6.68-5.25q-4.36-2.25-14.17-6.2Q538,75.05,532,68.51T526,52a22.48,22.48,0,0,1,4.09-13.29,26.58,26.58,0,0,1,11.45-9,41.93,41.93,0,0,1,16.9-3.21,73.22,73.22,0,0,1,14,1.23,55.46,55.46,0,0,1,12.26,3.95v12a58,58,0,0,0-24-5.32q-9.82,0-15,3.55A11.47,11.47,0,0,0,540.58,52a12.53,12.53,0,0,0,2.24,7.57A19.72,19.72,0,0,0,549.5,65q4.43,2.38,13.16,5.93a99.64,99.64,0,0,1,15.26,7.49,23.17,23.17,0,0,1,11.45,21.4q0,12.4-8.86,19.22t-26.17,6.81A90.73,90.73,0,0,1,538.19,124.46Z"/><line class="cls-1" x1="38.02" y1="137.19" x2="589.37" y2="137.19"/></svg>